Coordinates
version=1
nRows=19
nColumns=24
inDegrees=yes

Units are S.I. units (second, meters, Newtons, ...)
Angles are in degrees.

endheader
time	pelvis_tilt	pelvis_list	pelvis_rotation	pelvis_tx	pelvis_ty	pelvis_tz	hip_flexion_r	hip_adduction_r	hip_rotation_r	knee_angle_r	ankle_angle_r	subtalar_angle_r	mtp_angle_r	hip_flexion_l	hip_adduction_l	hip_rotation_l	knee_angle_l	ankle_angle_l	subtalar_angle_l	mtp_angle_l	lumbar_extension	lumbar_bending	lumbar_rotation
      6.40000000	      7.37883170	     -2.79380196	     -0.32386718	     -0.61372080	      1.05544873	      0.23467394	    -22.28180580	      5.65701505	     -3.89682221	    -11.93232621	      6.04347465	     -9.93139987	      0.00000000	     11.07049761	     -1.95724880	     -1.86988847	     -0.38194433	      0.00540558	    -14.86461797	      0.00000000	    -21.17807542	      3.01266474	     -0.49930469
      6.41000000	      7.76286895	     -2.58113908	     -0.25166432	     -0.59905612	      1.05469545	      0.23227579	    -22.61313802	      5.16876009	     -5.23660198	    -13.46365270	      5.69217805	     -9.10425978	      0.00000000	     10.67252045	     -1.50388353	     -1.38400212	     -1.18255545	      0.21973135	    -14.82053374	      0.00000000	    -21.29427300	      2.81504558	     -0.53976367
      6.42000000	      8.06355132	     -2.30955823	     -0.17955676	     -0.58397556	      1.05384617	      0.22978558	    -22.80695764	      4.57708791	     -6.74306207	    -15.10470997	      5.15351698	     -8.33930693	      0.00000000	     10.28567716	     -0.97796379	     -1.00117054	     -2.08458034	      0.15048747	    -14.81627078	      0.00000000	    -21.22996367	      2.55956270	     -0.57952975
      6.43000000	      8.27382113	     -1.96155941	     -0.12210580	     -0.56852003	      1.05292666	      0.22720844	    -22.86146895	      3.84864748	     -8.38261145	    -16.84169709	      4.38100356	     -7.66074522	      0.00000000	      9.88616665	     -0.36988855	     -0.68182432	     -2.97323554	     -0.25157015	    -15.01463353	      0.00000000	    -20.99098086	      2.22470570	     -0.62639215
      6.44000000	      8.39227353	     -1.52313907	     -0.08566692	     -0.55278665	      1.05200659	      0.22456550	    -22.77740278	      2.96353076	    -10.09810520	    -18.65174405	      3.28672285	     -7.12967921	      0.00000000	      9.47351110	      0.32967401	     -0.33408929	     -3.79138488	     -1.00086968	    -15.61572579	      0.00000000	    -20.59447346	      1.79307898	     -0.71210685
      6.45000000	      8.44216037	     -0.98100690	     -0.04110068	     -0.53690790	      1.05119148	      0.22185498	    -22.58716344	      1.93587104	    -11.78442628	    -20.49326917	      1.73991567	     -6.90709367	      0.00000000	      9.05513561	      1.14045158	      0.19032689	     -4.55586701	     -2.05990742	    -16.78562484	      0.00000000	    -20.09269674	      1.25304926	     -0.84297081
      6.46000000	      8.43755095	     -0.32051407	      0.03451012	     -0.52101973	      1.05057861	      0.21910846	    -22.29227838	      0.78237513	    -13.33664857	    -22.35905152	     -0.37838943	     -7.14961571	      0.00000000	      8.67587965	      2.07895650	      0.81971501	     -5.34826688	     -3.04004985	    -18.20664112	      0.00000000	    -19.52502269	      0.58449567	     -1.05940799
      6.47000000	      8.40321066	      0.44074296	      0.16748825	     -0.50527153	      1.05025956	      0.21635358	    -21.89439089	     -0.46149105	    -14.73416920	    -24.26919894	     -3.00648553	     -7.75349582	      0.00000000	      8.36249335	      3.12721046	      1.47490388	     -6.24360361	     -3.75004185	    -19.60678295	      0.00000000	    -18.95043616	     -0.19210364	     -1.37505220
      6.48000000	      8.34375539	      1.26222616	      0.39763090	     -0.48977546	      1.05025528	      0.21359677	    -21.37910491	     -1.72193943	    -15.92855654	    -26.23897205	     -6.11026671	     -8.71548424	      0.00000000	      8.13097227	      4.24627812	      2.14058632	     -7.27417801	     -3.95196631	    -20.66265885	      0.00000000	    -18.39602408	     -1.03217712	     -1.76915849
      6.49000000	      8.27274124	      2.09611188	      0.72071258	     -0.47460289	      1.05055330	      0.21089100	    -20.73932037	     -2.92772947	    -16.81780730	    -28.29346962	     -9.52212523	     -9.94084053	      0.00000000	      7.93997134	      5.38111450	      2.79914833	     -8.38219794	     -3.69691557	    -21.42653236	      0.00000000	    -17.89750691	     -1.89143641	     -2.29338909
      6.50000000	      8.17304669	      2.89007107	      1.07106334	     -0.45980630	      1.05108497	      0.20834691	    -19.91661113	     -4.03148243	    -17.30241455	    -30.47466757	    -13.09396677	    -11.51338989	      0.00000000	      7.75141501	      6.46086254	      3.40846437	     -9.45302939	     -3.12026009	    -21.90637524	      0.00000000	    -17.44912342	     -2.73526711	     -2.77590097
      6.51000000	      8.02751601	      3.60507107	      1.42016437	     -0.44540180	      1.05177212	      0.20602076	    -18.87073964	     -4.98564352	    -17.35467436	    -32.80158928	    -16.64012145	    -13.38860681	      0.00000000	      7.54246273	      7.42864193	      3.89952990	    -10.39387619	     -2.26274300	    -22.03599437	      0.00000000	    -17.03629352	     -3.53294703	     -3.21662519
      6.52000000	      7.82971572	      4.21906889	      1.68012221	     -0.43137981	      1.05254786	      0.20400251	    -17.56956069	     -5.78325345	    -16.93605735	    -35.28401596	    -19.99131319	    -15.60407301	      0.00000000	      7.28165510	      8.24363011	      4.20581364	    -11.11276693	     -1.20406950	    -21.84112284	      0.00000000	    -16.64670486	     -4.27250183	     -3.53997652
      6.53000000	      7.58559560	      4.74991946	      1.84220141	     -0.41774046	      1.05334140	      0.20226323	    -16.02652764	     -6.45786198	    -16.19962088	    -37.90734887	    -23.03075323	    -18.13680035	      0.00000000	      6.95535933	      8.92265365	      4.31670831	    -11.57365333	     -0.13653823	    -21.47330402	      0.00000000	    -16.28951810	     -4.97118131	     -3.73905776
      6.54000000	      7.31389352	      5.22315356	      1.85840389	     -0.40444129	      1.05412607	      0.20080841	    -14.28091069	     -7.04191444	    -15.18217596	    -40.61866583	    -25.71723432	    -21.01638500	      0.00000000	      6.53588756	      9.49459883	      4.25279058	    -11.75031165	      0.83628416	    -21.06382252	      0.00000000	    -15.97501032	     -5.65337909	     -3.80726125
      6.55000000	      7.03376469	      5.64830855	      1.72260110	     -0.39145520	      1.05488983	      0.19960197	    -12.38623576	     -7.54220554	    -13.95727040	    -43.34132202	    -28.03838225	    -24.18380160	      0.00000000	      6.01658124	      9.98245065	      4.05966828	    -11.66126634	      1.63241456	    -20.76256941	      0.00000000	    -15.70907542	     -6.31776455	     -3.76645392
      6.56000000	      6.80412033	      6.02794075	      1.46431828	     -0.37874727	      1.05570732	      0.19858073	    -10.45955116	     -7.94346463	    -12.60169392	    -45.97088240	    -29.94946674	    -27.54794933	      0.00000000	      5.35108094	     10.40053359	      3.78862418	    -11.34385181	      2.32648677	    -20.47343946	      0.00000000	    -15.55096977	     -6.94877859	     -3.66148605
      6.57000000	      6.62396089	      6.35133975	      1.13467166	     -0.36629206	      1.05657473	      0.19765494	     -8.54404138	     -8.23433131	    -11.21133379	    -48.43464332	    -31.29415445	    -30.88978789	      0.00000000	      4.56482482	     10.75613659	      3.51900964	    -10.85133126	      2.85664536	    -20.30460688	      0.00000000	    -15.48805361	     -7.51098760	     -3.56170534
      6.58000000	      6.50855550	      6.60342915	      0.79864645	     -0.35405306	      1.05753547	      0.19673518	     -6.70358557	     -8.39854113	     -9.87284024	    -50.65989678	    -31.96793191	    -33.95863603	      0.00000000	      3.65789514	     11.04698900	      3.33660626	    -10.23447527	      3.24968349	    -20.24982130	      0.00000000	    -15.52936580	     -7.96761552	     -3.53180453
